<svg width="19" height="19" viewBox="0 0 19 19" fill="none" xmlns="http://www.w3.org/2000/svg">
<g clip-path="url(#clip0)">
<path d="M3.02218 12.8024C2.75432 12.5346 2.75432 12.1129 3.02218 11.845C3.281 11.5862 3.71174 11.5862 3.96995 11.845L8.82462 16.6997L8.82462 0.679941C8.82462 0.306505 9.12144 3.59642e-05 9.49488 3.59479e-05C9.86831 3.59316e-05 10.1748 0.306505 10.1748 0.679941L10.1748 16.6997L15.0204 11.845C15.2883 11.5862 15.7196 11.5862 15.9778 11.845C16.2457 12.1129 16.2457 12.5346 15.9778 12.8024L9.97389 18.8064C9.71508 19.0652 9.28433 19.0652 9.02612 18.8064L3.02218 12.8024Z" fill="#D47366"/>
</g>
<defs>
<clipPath id="clip0">
<rect width="19" height="19" fill="white" transform="translate(0 19) rotate(-90)"/>
</clipPath>
</defs>
</svg>
