<svg width="19" height="19" viewBox="0 0 19 19" fill="none" xmlns="http://www.w3.org/2000/svg">
<g clip-path="url(#clip0)">
<path d="M6.19805 3.02194C6.46591 2.75408 6.88761 2.75408 7.15547 3.02194C7.41428 3.28075 7.41428 3.7115 7.15547 3.96971L2.3008 8.82438L18.3205 8.82438C18.694 8.82438 19.0005 9.1212 19.0005 9.49463C19.0005 9.86807 18.694 10.1745 18.3205 10.1745L2.3008 10.1745L7.15547 15.0202C7.41428 15.288 7.41428 15.7194 7.15547 15.9776C6.88761 16.2454 6.46591 16.2454 6.19805 15.9776L0.194108 9.97365C-0.0647028 9.71483 -0.0647028 9.28409 0.194108 9.02588L6.19805 3.02194Z" fill="#D47366"/>
</g>
<defs>
<clipPath id="clip0">
<rect width="19" height="19" fill="white"/>
</clipPath>
</defs>
</svg>
