<svg width="17" height="19" viewBox="0 0 19 19" fill="none" xmlns="http://www.w3.org/2000/svg">
<g clip-path="url(#clip0)">
<path d="M12.802 15.9781C12.5341 16.2459 12.1124 16.2459 11.8445 15.9781C11.5857 15.7192 11.5857 15.2885 11.8445 15.0303L16.6992 10.1756L0.679452 10.1756C0.306016 10.1756 -0.000452592 9.8788 -0.000452625 9.50537C-0.000452658 9.13193 0.306016 8.82546 0.679452 8.82546L16.6992 8.82546L11.8445 3.97984C11.5857 3.71198 11.5857 3.28063 11.8445 3.02242C12.1124 2.75456 12.5341 2.75456 12.802 3.02242L18.8059 9.02635C19.0647 9.28517 19.0647 9.71591 18.8059 9.97412L12.802 15.9781Z" fill="#fff"/>
</g>
<defs>
<clipPath id="clip0">
<rect width="19" height="19" fill="white" transform="translate(19 19) rotate(180)"/>
</clipPath>
</defs>
</svg>
