<svg width="22" height="22" viewBox="0 0 22 22" fill="none" xmlns="http://www.w3.org/2000/svg">
<path d="M18.5625 2.06256H15.8125V1.37503C15.8125 0.96256 15.5375 0.6875 15.125 0.6875C14.7124 0.6875 14.4375 0.962481 14.4375 1.37503V2.06256H7.56254V1.37503C7.56254 0.96256 7.28756 0.6875 6.875 0.6875C6.46253 0.6875 6.18747 0.962481 6.18747 1.37503V2.06256H3.4375C1.51248 2.06256 0 3.57504 0 5.50007V17.8751C0 19.8001 1.51248 21.3126 3.4375 21.3126H18.5625C20.4875 21.3126 22 19.8001 22 17.8751V5.50007C22 3.57504 20.4875 2.06256 18.5625 2.06256V2.06256ZM1.37499 5.50007C1.37499 4.40006 2.3375 3.43755 3.4375 3.43755H6.18747V4.12508C6.18747 4.53755 6.46245 4.81261 6.875 4.81261C7.28748 4.81261 7.56254 4.53763 7.56254 4.12508V3.43755H14.4375V4.12508C14.4375 4.53755 14.7125 4.81261 15.1251 4.81261C15.5376 4.81261 15.8126 4.53763 15.8126 4.12508V3.43755H18.5626C19.6626 3.43755 20.6251 4.40006 20.6251 5.50007V7.56258H1.37499V5.50007V5.50007ZM20.625 17.8751C20.625 18.9751 19.6625 19.9376 18.5625 19.9376H3.4375C2.3375 19.9376 1.37499 18.9751 1.37499 17.8751V8.93757H20.625V17.8751Z" fill="#D47366"/>
<path d="M4.81248 17.8752C5.22496 17.8752 5.50002 17.7377 5.775 17.4627C6.04998 17.1878 6.18747 16.7752 6.18747 16.5002C6.18747 16.2252 6.04998 15.8127 5.775 15.5377C5.22504 14.9878 4.40001 14.9878 3.84997 15.5377C3.57499 15.8127 3.4375 16.0877 3.4375 16.5002C3.4375 16.7752 3.57499 17.1878 3.84997 17.4627C4.12495 17.7377 4.40001 17.8752 4.81248 17.8752V17.8752Z" fill="#D47366"/>
<path d="M4.81248 13.75C5.22496 13.75 5.50002 13.6125 5.775 13.3375C6.04998 13.0625 6.18747 12.65 6.18747 12.375C6.18747 12.1 6.04998 11.6875 5.775 11.4125C5.22504 10.8625 4.40001 10.8625 3.84997 11.4125C3.57499 11.6875 3.4375 11.9624 3.4375 12.375C3.4375 12.7875 3.57499 13.0625 3.84997 13.3375C4.12495 13.6125 4.40001 13.75 4.81248 13.75V13.75Z" fill="#D47366"/>
<path d="M8.93749 17.8752C9.34996 17.8752 9.62502 17.7377 9.9 17.4627C10.175 17.1878 10.3125 16.7752 10.3125 16.5002C10.3125 16.2252 10.175 15.8127 9.9 15.5377C9.35004 14.9878 8.52501 14.9878 7.97497 15.5377C7.69999 15.8127 7.5625 16.2252 7.5625 16.5002C7.5625 16.7752 7.69999 17.1878 7.97497 17.4627C8.24995 17.7377 8.52501 17.8752 8.93749 17.8752V17.8752Z" fill="#D47366"/>
<path d="M8.93749 13.75C9.34996 13.75 9.62502 13.6125 9.9 13.3375C10.175 13.0625 10.3125 12.65 10.3125 12.375C10.3125 12.1 10.175 11.6875 9.9 11.4125C9.35004 10.8625 8.52501 10.8625 7.97497 11.4125C7.69999 11.6875 7.5625 12.1 7.5625 12.375C7.5625 12.65 7.69999 13.0625 7.97497 13.3375C8.24995 13.6125 8.52501 13.75 8.93749 13.75V13.75Z" fill="#D47366"/>
<path d="M13.0625 17.8752C13.475 17.8752 13.75 17.7377 14.025 17.4627C14.3 17.1878 14.4375 16.9128 14.4375 16.5002C14.4375 16.0877 14.3 15.8127 14.025 15.5377C13.475 14.9878 12.65 14.9878 12.1 15.5377C11.825 15.8127 11.6875 16.2252 11.6875 16.5002C11.6875 16.7752 11.825 17.1878 12.1 17.4627C12.375 17.7377 12.65 17.8752 13.0625 17.8752V17.8752Z" fill="#D47366"/>
<path d="M13.0625 13.75C13.475 13.75 13.75 13.6125 14.025 13.3375C14.3 13.0625 14.4375 12.7875 14.4375 12.375C14.4375 12.1 14.3 11.6875 14.025 11.4125C13.475 10.8625 12.65 10.8625 12.1 11.4125C11.825 11.6875 11.6875 12.1 11.6875 12.375C11.6875 12.65 11.825 13.0625 12.1 13.3375C12.375 13.6125 12.65 13.75 13.0625 13.75V13.75Z" fill="#D47366"/>
<path d="M17.1875 17.8752C17.6 17.8752 17.875 17.7377 18.15 17.4627C18.425 17.1878 18.5625 16.7752 18.5625 16.5002C18.5625 16.2252 18.425 15.8127 18.15 15.5377C17.6 14.9878 16.775 14.9878 16.225 15.5377C15.95 15.8127 15.8125 16.0877 15.8125 16.5002C15.8125 16.7752 15.95 17.1878 16.225 17.4627C16.5 17.7377 16.775 17.8752 17.1875 17.8752V17.8752Z" fill="#D47366"/>
<path d="M17.1875 13.75C17.6 13.75 17.875 13.6125 18.15 13.3375C18.425 13.0625 18.5625 12.7875 18.5625 12.375C18.5625 12.1 18.425 11.6875 18.15 11.4125C17.6 10.8625 16.775 10.8625 16.225 11.4125C15.95 11.6875 15.8125 12.1 15.8125 12.375C15.8125 12.65 15.95 13.0625 16.225 13.3375C16.5 13.6125 16.775 13.75 17.1875 13.75V13.75Z" fill="#D47366"/>
</svg>
