<svg width="153" height="43" viewBox="0 0 153 43" fill="none" xmlns="http://www.w3.org/2000/svg">
<g clip-path="url(#clip0)">
<path d="M0 24.2649L5.49984 29.1684L6.36787 28.301L0.869009 23.3984L0 24.2649Z" fill="#D47366"/>
<path d="M9.12938 21.5959L7.96779 22.5415L9.38017 24.0858L10.5826 23.1058C11.2368 22.573 11.4001 21.9552 10.9481 21.4615L10.9335 21.4462C10.5039 20.9753 9.85841 21.003 9.12938 21.5959ZM8.58406 19.3462C8.16705 18.8906 7.5605 18.9144 6.94714 19.4139L5.89247 20.2728L7.26208 21.7703L8.26037 20.9582C8.88248 20.451 9.05842 19.8638 8.59864 19.3624L8.58406 19.3462ZM4.23999 20.2318L6.28517 18.5655C6.91506 18.0527 7.57897 17.7953 8.17386 17.8363C8.64627 17.8687 9.05259 18.0631 9.39183 18.434L9.41322 18.4568C10.0207 19.1203 9.92937 19.8009 9.67956 20.3538C10.4932 20.0411 11.2902 20.0392 11.9464 20.757L11.9746 20.7885C12.8436 21.7379 12.5053 22.9285 11.2864 23.9218L9.18382 25.6348L4.23999 20.2318Z" fill="#D47366"/>
<path d="M15.1503 19.7924L15.2582 18.658C16.0076 18.7628 16.7464 18.739 17.4113 18.3205C18.0139 17.9402 18.1811 17.3692 17.8749 16.9364L17.8691 16.9278C17.5989 16.5456 17.2149 16.4446 15.9697 16.7248C14.4737 17.0537 13.5678 17.0232 12.8951 16.0737L12.8835 16.0566C12.1933 15.0805 12.5258 13.8775 13.6942 13.1416C14.4319 12.6773 15.2533 12.4781 16.1719 12.5992L16.1126 13.7288C15.4409 13.6611 14.8023 13.7326 14.2978 14.05C13.7311 14.4065 13.5911 14.9251 13.8672 15.315L13.873 15.3245C14.1675 15.7401 14.5564 15.8135 15.9036 15.5294C17.3734 15.2168 18.2365 15.3359 18.8489 16.2015L18.8606 16.2186C19.5993 17.2624 19.2095 18.4769 18.0314 19.2185C17.2237 19.7266 16.2604 19.9658 15.1503 19.7924Z" fill="#D47366"/>
<path d="M19.6646 9.81283L23.9105 7.77002L24.4256 8.72327L21.2966 10.2294L22.2298 11.9548L25.0021 10.6212L25.5182 11.5744L22.745 12.909L23.6976 14.6706L26.8655 13.1463L27.3855 14.1091L23.1017 16.171L19.6646 9.81283Z" fill="#D47366"/>
<path d="M28.0737 6.03596L29.1595 5.65943L34.0324 9.03583L32.2963 4.57368L33.453 4.17236L36.061 10.8756L35.0559 11.2235L30.047 7.73274L31.8385 12.3379L30.6817 12.7392L28.0737 6.03596Z" fill="#D47366"/>
<path d="M38.0156 2.89035L39.2346 2.6101L40.1133 6.01891L42.0914 1.95427L43.5407 1.62158L41.758 5.19054L45.4566 8.52976L44.0064 8.86244L41.1524 6.29535L40.507 7.54601L41.0241 9.54688L39.8052 9.82713L38.0156 2.89035Z" fill="#D47366"/>
<path d="M46.6777 1.08383L48.023 0.88746L50.7331 5.94157L51.6983 0.351735L53.0125 0.15918L51.5788 7.63454L50.4259 7.80326L46.6777 1.08383Z" fill="#D47366"/>
<path d="M59.3931 1.58144L60.4653 4.4469L58.3141 4.44785L59.3931 1.58144ZM60.0181 0L58.8079 0.000953247L56.0366 7.18271L57.3013 7.18176L57.9273 5.49833L60.8667 5.49547L61.4956 7.17795L62.804 7.17604L60.0181 0Z" fill="#D47366"/>
<path d="M69.1816 4.11892C70.1478 4.22187 70.7427 3.79291 70.8331 3.0427L70.834 3.03317C70.9293 2.23244 70.4326 1.74819 69.4877 1.6481L68.1337 1.50416L67.8382 3.97688L69.1816 4.11892ZM67.0149 0.306885L69.7327 0.595718C70.592 0.68723 71.2617 1.00466 71.6612 1.47842C72.0141 1.89499 72.1755 2.45646 72.0967 3.11515L72.0938 3.14565C71.9636 4.23998 71.2374 4.85101 70.2877 5.05787L71.7332 7.99196L70.2819 7.83849L68.991 5.16653L67.7128 5.03022L67.4144 7.53345L66.1682 7.40094L67.0149 0.306885Z" fill="#D47366"/>
<path d="M77.9541 2.9866L76.0139 2.57575L76.2705 1.50049L81.3854 2.58624L81.1288 3.66055L79.1779 3.24684L77.7743 9.13695L76.5515 8.87766L77.9541 2.9866Z" fill="#D47366"/>
<path d="M86.8911 8.8432L86.8805 5.8033L84.8596 8.17497L86.8911 8.8432ZM86.8795 4.12939L88.0236 4.50497L88.1431 12.15L86.9077 11.7439L86.9018 9.95945L84.1247 9.04624L82.9456 10.4408L81.751 10.0481L86.8795 4.12939Z" fill="#D47366"/>
<path d="M94.6112 7.09985L95.7271 7.63748L92.812 13.0243L95.6999 14.417L95.174 15.3883L91.1682 13.458L94.6112 7.09985Z" fill="#D47366"/>
<path d="M102.412 11.1929L106.318 13.7743L105.667 14.6513L102.788 12.7486L101.609 14.3367L104.16 16.022L103.508 16.9L100.958 15.2137L99.7532 16.8351L102.668 18.7607L102.009 19.6472L98.0686 17.041L102.412 11.1929Z" fill="#D47366"/>
<path d="M110.232 18.3815L108.788 17.0898L109.592 16.291L113.395 19.696L112.591 20.4948L111.142 19.1956L106.737 23.5748L105.827 22.7607L110.232 18.3815Z" fill="#D47366"/>
<path d="M68.501 26.1084L69.5829 26.7061L67.703 29.7336L72.119 28.1093L73.4069 28.8204L69.4954 30.2159L69.6918 35.0413L68.4048 34.3301L68.2463 30.6134L66.8602 31.0882L65.7569 32.866L64.675 32.2673L68.501 26.1084Z" fill="#D47366"/>
<path d="M79.1654 35.0355L79.1926 34.9688C79.7923 33.5361 79.3841 32.2883 78.2779 31.8755C77.162 31.4609 75.9741 32.1043 75.3754 33.5361L75.3482 33.6028C74.7494 35.0355 75.1664 36.2872 76.2726 36.699C77.3787 37.1108 78.5656 36.4673 79.1654 35.0355ZM74.1302 33.1824L74.17 33.0881C74.9992 31.1053 76.8879 30.1749 78.7173 30.8565C80.5573 31.5419 81.2368 33.4169 80.4115 35.3911L80.3717 35.4855C79.5464 37.4587 77.6636 38.4024 75.8342 37.7208C73.9941 37.0345 73.3049 35.1557 74.1302 33.1824Z" fill="#D47366"/>
<path d="M85.0803 33.051L86.2059 33.3027L88.2938 38.6523L89.4554 34.0291L90.6549 34.2969L88.9091 41.2432L87.8681 41.0106L85.7335 35.4923L84.5349 40.2642L83.3354 39.9964L85.0803 33.051Z" fill="#D47366"/>
<path d="M94.4158 34.8831L99.1254 35.434L98.9825 36.5169L95.5181 36.1108L95.2567 38.0945L98.3244 38.453L98.1825 39.5368L95.1138 39.1774L94.7288 42.1134L93.4836 41.9676L94.4158 34.8831Z" fill="#D47366"/>
<path d="M102.265 42.7933L107.072 43.0002L107.124 41.9192L103.57 41.7676L103.666 39.7896L106.776 39.924L106.828 38.8535L103.717 38.7201L103.811 36.7831L107.322 36.9346L107.373 35.8642L102.609 35.6602L102.265 42.7933Z" fill="#D47366"/>
<path d="M113.772 39.0431C114.74 38.9573 115.229 38.4225 115.154 37.6713L115.153 37.6608C115.074 36.8592 114.483 36.4817 113.536 36.5656L112.18 36.6857L112.427 39.1622L113.772 39.0431ZM110.826 35.7315L113.548 35.4894C114.408 35.4121 115.132 35.5942 115.626 35.9803C116.061 36.3206 116.341 36.8382 116.406 37.4978L116.409 37.5283C116.518 38.6246 115.941 39.3624 115.056 39.7485L117.106 42.3413L115.654 42.47L113.812 40.104L112.532 40.2175L112.782 42.7245L111.534 42.8351L110.826 35.7315Z" fill="#D47366"/>
<path d="M124.411 38.3205L122.742 35.7229L122.306 38.7351L124.411 38.3205ZM121.828 34.2882L123.013 34.0547L127.289 40.5444L126.009 40.796L125.03 39.2709L122.153 39.838L121.904 41.6063L120.667 41.8503L121.828 34.2882Z" fill="#D47366"/>
<path d="M128.834 32.7364L129.928 32.3817L134.724 35.8535L133.087 31.358L134.253 30.9805L136.711 37.7333L135.699 38.0612L130.768 34.4713L132.458 39.1117L131.292 39.4891L128.834 32.7364Z" fill="#D47366"/>
<path d="M140.145 35.3597L140.399 34.2464C141.13 34.437 141.864 34.5009 142.58 34.1625C143.227 33.8555 143.468 33.3084 143.221 32.8432L143.216 32.8336C142.999 32.4228 142.631 32.2779 141.36 32.4114C139.832 32.5639 138.937 32.4276 138.395 31.4066L138.385 31.3885C137.827 30.3399 138.314 29.1856 139.571 28.5907C140.363 28.2161 141.204 28.1141 142.099 28.341L141.893 29.4544C141.236 29.3085 140.593 29.3057 140.051 29.5611C139.443 29.85 139.236 30.3466 139.458 30.766L139.463 30.7746C139.7 31.2217 140.078 31.3399 141.451 31.215C142.95 31.0768 143.792 31.2941 144.286 32.2236L144.295 32.2426C144.891 33.3636 144.347 34.5228 143.08 35.1224C142.209 35.5361 141.224 35.66 140.145 35.3597Z" fill="#D47366"/>
<path d="M144.73 25.997L149.052 31.8547L153 29.2618L152.346 28.3744L149.427 30.2913L148.229 28.6679L150.784 26.9902L150.134 26.1113L147.581 27.7891L146.407 26.199L149.29 24.3049L148.641 23.427L144.73 25.997Z" fill="#D47366"/>
<path d="M61.1466 25.874L58.7019 28.1609L56.2786 25.855L58.7223 23.5691L61.1466 25.874Z" fill="#D47366"/>
</g>
<defs>
<clipPath id="clip0">
<rect width="153" height="43" fill="white"/>
</clipPath>
</defs>
</svg>
