<svg width="128" height="156" viewBox="0 0 128 156" fill="none" xmlns="http://www.w3.org/2000/svg">
<path d="M34.9694 109.088L28.2895 106.458C17.7255 102.563 13.0147 97.9542 13.0147 91.515C13.0147 85.2353 17.532 81.1787 24.5237 81.1787C33.6835 81.1787 41.744 88.0312 46.0832 99.5103L46.2349 99.9111H48.6021V75.3497H27.3042C10.8744 75.3497 0.667991 84.1258 0.667991 98.2538C0.667991 108.747 6.82744 116.401 18.9668 121.003L25.6468 123.633C35.9074 127.522 40.4818 132.274 40.4818 139.036C40.4818 146.047 35.6026 150.401 27.7482 150.401C17.1298 150.401 8.169 142.468 2.51472 128.063L2.36024 127.669H0V156H1.94692L12.0461 153.848C17.1285 155.296 22.0118 156 26.9688 156C42.9018 156 53.605 146.474 53.605 132.296C53.6064 121.477 47.3371 113.669 34.9694 109.088Z" fill="black"/>
<path d="M115.919 33.8976L119.231 35.1555L118.007 38.5561L114.695 37.2996L115.919 33.8976Z" fill="#D47366"/>
<path d="M64.6562 121.209L67.1417 123.784L64.6353 126.338L62.1484 123.762L64.6562 121.209Z" fill="#D47366"/>
<path d="M7.54975 62.5488L10.0352 65.1242L7.52887 67.6774L5.04199 65.1034L7.54975 62.5488Z" fill="#D47366"/>
<path d="M3.66504 57.1001L3.83482 55.6536L12.2571 56.6937L12.0887 58.1388L3.66504 57.1001Z" fill="#D47366"/>
<path d="M10.3738 47.6734L9.90199 49.3723L12.233 50.056L12.7215 48.2975C12.9873 47.3392 12.7368 46.6055 11.9909 46.3878L11.9672 46.3808C11.2575 46.1728 10.6702 46.6083 10.3738 47.6734ZM8.39622 45.7221C7.70875 45.5196 7.15486 45.9273 6.90576 46.8246L6.47713 48.3696L8.73718 49.0325L9.14354 47.5735C9.39682 46.6638 9.17833 45.9523 8.42127 45.7304L8.39622 45.7221ZM4.90039 49.3695L5.7312 46.3781C5.98727 45.4572 6.44094 44.7748 7.02544 44.4406C7.48886 44.1757 7.99681 44.1175 8.55626 44.2811L8.58966 44.2922C9.59165 44.5862 9.94931 45.3379 10.0759 46.0605C10.6354 45.2284 11.3813 44.7208 12.464 45.0397L12.5099 45.0536C13.9433 45.4738 14.4026 46.9023 13.9086 48.6858L13.0527 51.7605L4.90039 49.3695Z" fill="#D47366"/>
<path d="M15.1119 41.6378L14.5483 40.3716C15.3402 40.0554 16.0457 39.6088 16.4479 38.785C16.8111 38.0389 16.6386 37.3371 16.0861 37.0528L16.0749 37.0473C15.5879 36.7962 15.1523 36.9072 14.1058 37.9154C12.8407 39.1178 11.939 39.6019 10.7254 38.9778L10.7046 38.9667C9.45764 38.3232 9.07216 36.8586 9.77912 35.4094C10.2244 34.4968 10.9091 33.8173 11.8749 33.422L12.4803 34.6535C11.7873 34.9656 11.207 35.4052 10.9022 36.0279C10.5598 36.731 10.7268 37.3593 11.2264 37.6159L11.2376 37.6228C11.7692 37.8946 12.1908 37.7504 13.3362 36.6811C14.5859 35.512 15.4974 35.1459 16.6038 35.7145L16.6247 35.7256C17.9592 36.4121 18.2946 37.9224 17.5835 39.3813C17.0922 40.3854 16.2962 41.187 15.1119 41.6378Z" fill="#D47366"/>
<path d="M14.2207 27.8192L17.4173 23.4229L18.436 24.2037L16.0799 27.4448L17.9253 28.8594L20.0128 25.9872L21.0328 26.7694L18.944 29.6416L20.8269 31.0853L23.2136 27.8053L24.242 28.5945L21.0161 33.0324L14.2207 27.8192Z" fill="#D47366"/>
<path d="M21.4961 18.763L22.4591 17.8712L29.0221 19.6006L25.2396 15.2944L26.2653 14.343L31.9474 20.8127L31.0567 21.6379L24.3003 19.835L28.2039 24.2813L27.1782 25.2313L21.4961 18.763Z" fill="#D47366"/>
<path d="M31.4326 10.4722L32.642 9.73851L34.7642 13.4262L35.4823 8.01325L36.9227 7.13953L36.2422 11.9062L41.3662 14.569L39.9273 15.4441L35.975 13.3998L35.7147 15.0779L36.9603 17.2428L35.7495 17.9792L31.4326 10.4722Z" fill="#D47366"/>
<path d="M41.2393 5.06073L42.6768 4.53373L46.7933 10.0063L46.6041 3.09416L48.0096 2.57825L48.1043 11.8522L46.8713 12.3057L41.2393 5.06073Z" fill="#D47366"/>
<path d="M57.7041 6.01473L55.9785 2.7556L55.3216 6.4086L57.7041 6.01473ZM55.0336 0.956839L56.3751 0.736328L60.8061 8.88276L59.3574 9.12269L58.3457 7.20744L55.0906 7.74692L54.7135 9.88963L53.3135 10.1199L55.0336 0.956839Z" fill="#D47366"/>
<path d="M67.7215 4.44906C68.814 4.48789 69.4388 3.91095 69.4708 2.98869L69.4694 2.97621C69.5014 1.99292 68.9016 1.44788 67.8342 1.41044L66.3062 1.35635L66.206 4.39636L67.7215 4.44906ZM64.9438 0L68.011 0.106787C68.981 0.140072 69.7603 0.467372 70.2515 1.00825C70.6857 1.48533 70.9181 2.15519 70.8917 2.96373L70.8903 3.00117C70.8444 4.34504 70.0901 5.15497 69.0464 5.49198L70.9348 8.93695L69.2983 8.8787L67.606 5.74023L66.1628 5.68891L66.0613 8.76637L64.6543 8.71782L64.9438 0Z" fill="#D47366"/>
<path d="M78.0006 2.70446L75.8213 2.21351L76.1038 0.900146L81.8472 2.19409L81.566 3.50884L79.3756 3.01511L77.8364 10.2157L76.4628 9.90644L78.0006 2.70446Z" fill="#D47366"/>
<path d="M88.2627 10.2365L88.4394 6.52946L86.0277 9.29902L88.2627 10.2365ZM88.5452 4.48938L89.8018 5.01777L89.4581 14.3458L88.1012 13.7758L88.2056 11.6012L85.1537 10.3211L83.7454 11.9493L82.4316 11.3987L88.5452 4.48938Z" fill="#D47366"/>
<path d="M97.2808 8.93127L98.4734 9.69405L94.6742 15.9613L97.7637 17.9362L97.0762 19.0679L92.7969 16.3302L97.2808 8.93127Z" fill="#D47366"/>
<path d="M105.947 15.2042L109.887 18.9155L109.027 19.8793L106.126 17.1444L104.568 18.8877L107.14 21.3106L106.281 22.2745L103.707 19.8502L102.118 21.631L105.058 24.3991L104.188 25.3727L100.214 21.6268L105.947 15.2042Z" fill="#D47366"/>
<path d="M113.711 25.4864L112.357 23.6655L113.398 22.85L116.966 27.6485L115.925 28.464L114.564 26.6333L108.862 31.106L108.008 29.959L113.711 25.4864Z" fill="#D47366"/>
<path d="M124.089 41.7184L124.519 43.0928L120.547 44.4006L125.524 46.3186L126.034 47.9551L121.66 46.2174L117.997 50.7566L117.488 49.1215L120.303 45.6169L118.77 44.9858L116.437 45.7528L116.009 44.377L124.089 41.7184Z" fill="#D47366"/>
<path d="M123.518 59.316L123.602 59.3049C125.419 59.0775 126.506 57.9403 126.347 56.5811C126.186 55.2081 124.879 54.3788 123.06 54.6048L122.977 54.6159C121.158 54.8406 120.072 55.9931 120.232 57.3536C120.394 58.7128 121.699 59.5407 123.518 59.316ZM122.767 53.1362L122.886 53.1209C125.402 52.8075 127.384 54.1805 127.648 56.4314C127.916 58.6947 126.317 60.4727 123.812 60.7833L123.692 60.7986C121.188 61.1093 119.196 59.7501 118.931 57.5006C118.665 55.2386 120.262 53.4482 122.767 53.1362Z" fill="#D47366"/>
<path d="M119.428 66.9996L125.237 67.5085L119.1 70.9313L118.998 72.1601L127.452 72.902L127.571 71.4861L121.941 70.9937L127.889 67.6528L127.999 66.3255L119.545 65.585L119.428 66.9996Z" fill="#D47366"/>
<path d="M126.284 79.0584L124.835 84.3187L123.587 83.9568L124.653 80.086L122.366 79.4217L121.421 82.8487L120.173 82.4867L121.117 79.0584L117.733 78.0765L118.116 76.6854L126.284 79.0584Z" fill="#D47366"/>
<path d="M122.735 89.8688L120.385 94.8033L119.241 94.2277L120.975 90.5928L118.904 89.5512L117.369 92.7729L116.225 92.1987L117.76 88.9771L115.649 87.9133L113.894 91.5941L112.739 91.0144L115.112 86.0355L122.735 89.8688Z" fill="#D47366"/>
<path d="M112.105 99.8763C111.454 100.775 111.557 101.631 112.275 102.183L112.285 102.19C113.052 102.778 113.83 102.582 114.468 101.706L115.38 100.448L113.013 98.6309L112.105 99.8763ZM117.241 100.073L115.406 102.596C114.827 103.395 114.123 103.864 113.411 103.97C112.783 104.063 112.116 103.877 111.485 103.393L111.455 103.371C110.408 102.565 110.192 101.468 110.517 100.398L106.69 100.026L107.669 98.678L111.14 99.0414L112.004 97.8556L109.605 96.0166L110.445 94.86L117.241 100.073Z" fill="#D47366"/>
<path d="M102.802 108.621L105.971 110.406L104.602 106.968L102.802 108.621ZM107.713 111.396L106.7 112.326L98.6816 107.927L99.7741 106.922L101.633 107.972L104.092 105.711L103.281 103.697L104.339 102.725L107.713 111.396Z" fill="#D47366"/>
<path d="M99.5723 117.885L98.4506 118.551L92.383 115.45L95.2067 120.473L94.0099 121.183L89.7695 113.635L90.8091 113.02L97.0493 116.233L94.1365 111.048L95.3334 110.338L99.5723 117.885Z" fill="#D47366"/>
<path d="M86.3667 116.451L85.9061 117.757C85.1267 117.416 84.3196 117.226 83.4721 117.526C82.7039 117.796 82.3504 118.422 82.5494 119.021L82.5536 119.033C82.7303 119.563 83.1158 119.796 84.5492 119.829C86.2707 119.879 87.242 120.182 87.6832 121.501L87.6915 121.523C88.1452 122.878 87.4216 124.198 85.9311 124.725C84.9917 125.056 84.0412 125.05 83.0838 124.639L83.4888 123.324C84.1971 123.602 84.911 123.704 85.5526 123.478C86.2735 123.224 86.5838 122.653 86.4029 122.112L86.3973 122.1C86.2053 121.524 85.8045 121.323 84.2597 121.262C82.5717 121.2 81.6727 120.807 81.2719 119.606L81.2635 119.583C80.7792 118.135 81.5669 116.816 83.0685 116.287C84.0997 115.921 85.2158 115.923 86.3667 116.451Z" fill="#D47366"/>
<path d="M77.5575 126.973L72.2692 127.806L72.0757 126.513L75.9738 125.9L75.6244 123.56L72.1704 124.104L71.9783 122.811L75.431 122.266L75.0733 119.879L71.1294 120.499L70.9346 119.194L76.2688 118.354L77.5575 126.973Z" fill="#D47366"/>
</svg>
