<svg width="25" height="31" viewBox="0 0 25 31" fill="none" xmlns="http://www.w3.org/2000/svg">
<rect x="3.25854" y="5.8656" width="16.9451" height="17.5969" fill="white"/>
<path d="M14.44 0.0160669L12.4356 1.98904L10.4245 0C4.51662 0.852367 0 5.49709 0 11.1004V19.5317C0 25.1339 4.5147 29.7779 10.4209 30.6316L12.4266 28.63L14.4592 30.6128L14.4586 30.6131C20.3089 29.7163 24.766 25.0977 24.766 19.5317V11.1004C24.766 5.52841 20.2995 0.906015 14.44 0.0160669ZM12.4326 22.2021C11.5085 22.2021 10.5987 22.076 9.6515 21.8168L7.76926 22.2021H7.40636V17.1304H7.84634L7.87514 17.2009C8.92872 19.7798 10.5987 21.2 12.5775 21.2C14.0411 21.2 14.9504 20.4203 14.9504 19.1655C14.9504 17.9547 14.0976 17.1045 12.1858 16.4082L10.941 15.9374C8.67856 15.1136 7.53089 13.7433 7.53089 11.8651C7.53089 9.33601 9.43316 7.76499 12.4949 7.76499H16.464V12.1619H16.0229L15.9947 12.09C15.186 10.0351 13.684 8.80825 11.9767 8.80825C10.6738 8.80825 9.83199 9.53453 9.83199 10.6587C9.83199 11.8114 10.71 12.6363 12.6787 13.3337L13.9234 13.8045C16.2281 14.6245 17.3966 16.0221 17.3966 17.9588C17.3966 20.4968 15.4016 22.2021 12.4326 22.2021Z" fill="#303626"/>
</svg>
