<svg width="30" height="30" viewBox="0 0 30 30" fill="none" xmlns="http://www.w3.org/2000/svg">
<path d="M21.45 0H8.55C3.85002 0 0 3.85002 0 8.55V21.45C0 26.15 3.85002 30 8.55 30H21.45C26.15 30 30 26.15 30 21.45V8.55C30 3.85002 26.15 0 21.45 0ZM29 21.45C29 25.6 25.6 29 21.45 29H8.55C4.39998 29 1.00002 25.6 1.00002 21.45V8.55C1.00002 4.39998 4.40004 1.00002 8.55 1.00002H21.45C25.6 1.00002 29 4.40004 29 8.55V21.45Z" fill="#D47366"/>
<path d="M21.451 3H8.55098C5.501 3 3.00098 5.50002 3.00098 8.55V21.45C3.00098 24.5 5.501 27 8.55098 27H21.451C24.501 27 27.001 24.5 27.001 21.45V8.55C27.001 5.50002 24.501 3 21.451 3ZM26.001 21.45C26.001 23.95 23.9509 26 21.451 26H8.55098C6.05096 26 4.001 23.95 4.001 21.45V8.55C4.001 6.04998 6.05102 4.00002 8.55098 4.00002H21.451C23.951 4.00002 26.001 6.05004 26.001 8.55V21.45Z" fill="#D47366"/>
<path d="M15 7C10.6 7 7 10.6 7 15C7 19.4 10.6 23 15 23C19.4 23 23 19.4 23 15C23 10.6 19.4 7 15 7ZM15 22C11.15 22 7.99996 18.85 7.99996 15C7.99996 11.15 11.15 7.99996 15 7.99996C18.85 7.99996 22 11.15 22 15C22 18.85 18.85 22 15 22Z" fill="#D47366"/>
<path d="M15 9.5C11.95 9.5 9.5 11.95 9.5 15C9.5 18.05 11.95 20.5 15 20.5C18.0501 20.5 20.5 18.0501 20.5 15C20.5 11.95 18.05 9.5 15 9.5ZM15 19.5C12.5 19.5 10.5 17.5 10.5 15C10.5 12.5 12.5 10.5 15 10.5C17.5 10.5 19.5 12.5 19.5 15C19.5 17.5 17.5 19.5 15 19.5Z" fill="#D47366"/>
<path d="M22.999 5.5C22.149 5.5 21.499 6.14998 21.499 7C21.499 7.85002 22.149 8.49999 22.999 8.49999C23.849 8.49999 24.499 7.85002 24.499 7C24.499 6.14998 23.849 5.5 22.999 5.5Z" fill="#D47366"/>
</svg>
