<svg width="30" height="30" viewBox="0 0 30 30" fill="none" xmlns="http://www.w3.org/2000/svg">
<g clip-path="url(#clip0)">
<path d="M4.05 0.25C2.95002 0.25 1.95 0.650019 1.2 1.40002C0.40002 2.2 0 3.19996 0 4.24996C0 5.34994 0.45 6.34996 1.2 7.09996C1.95 7.84996 3 8.29996 4.00002 8.24998C4.00002 8.24998 4.05 8.24998 4.10004 8.24998C5.10006 8.24998 6.05004 7.84996 6.80004 7.09996C7.55004 6.34996 8.00004 5.34994 8.00004 4.24996C8.05002 3.19996 7.60002 2.19994 6.85002 1.44994C6.10002 0.649961 5.1 0.25 4.05 0.25ZM6.10002 6.4C5.55 6.95002 4.8 7.3 4.00002 7.25002C3.25002 7.25002 2.45004 6.95002 1.90002 6.4C1.30002 5.84998 1.00002 5.05 1.00002 4.25002C1.00002 3.45004 1.30002 2.70004 1.90002 2.10004C2.45004 1.55002 3.20004 1.25002 4.05 1.25002C4.8 1.25002 5.55 1.55002 6.10002 2.10004C6.70002 2.70004 7.00002 3.45004 7.00002 4.25002C7.00002 5.05 6.70002 5.84998 6.10002 6.4Z" fill="#D47366"/>
<path d="M6.00001 9.25H1.95002C1.15004 9.25 0.5 9.89998 0.5 10.75V28.25C0.5 29.05 1.20002 29.75 2 29.75H6.00001C6.79999 29.75 7.50001 29.05 7.50001 28.3V10.75C7.50001 9.94996 6.79999 9.25 6.00001 9.25ZM6.49999 28.3C6.49999 28.55 6.24998 28.75 6.00001 28.75H2C1.74998 28.75 1.50002 28.5 1.50002 28.25V10.75C1.50002 10.5 1.7 10.25 1.95002 10.25H6.00001C6.25003 10.25 6.49999 10.5 6.49999 10.75V28.3Z" fill="#D47366"/>
<path d="M23.0012 8.75H21.9512C20.0012 8.75 18.1512 9.60002 16.9512 10.95V10.25C16.9512 9.75002 16.4512 9.24998 15.9512 9.24998H10.9512C10.5012 9.24998 9.95117 9.65 9.95117 10.2V28.8499C9.95117 29.4 10.5012 29.7499 10.9512 29.7499H16.4512C16.9012 29.7499 17.4512 29.4 17.4512 28.8499V18.0499C17.4512 16.3999 18.6512 15.0999 20.2012 15.0999C21.0012 15.0999 21.7512 15.3999 22.3012 15.9499C22.8012 16.3999 23.0012 17.1 23.0012 18V28.75C23.0012 29.25 23.5012 29.75 24.0012 29.75H29.0012C29.5012 29.75 30.0012 29.25 30.0012 28.75V15.85C30.0012 11.85 26.9512 8.75 23.0012 8.75ZM29.0012 28.7L28.9512 28.75H24.0512L24.0012 18C24.0012 16.8 23.7012 15.9 23.0512 15.25C22.3012 14.5 21.3012 14.1 20.2512 14.1C18.1512 14.15 16.5012 15.85 16.5012 18.05V28.75H11.0012V10.25H15.9512L16.0012 10.3V13.45L17.3512 12.1L17.4011 12.05C18.4012 10.65 20.1511 9.75002 22.0012 9.75002H23.0512C26.4011 9.75002 29.0012 12.45 29.0012 15.85V28.7Z" fill="#D47366"/>
</g>
<defs>
<clipPath id="clip0">
<rect width="30" height="30" fill="white"/>
</clipPath>
</defs>
</svg>
